<svg width="16" height="11" viewBox="0 0 16 11" fill="none" xmlns="http://www.w3.org/2000/svg">
<path fill-rule="evenodd" clip-rule="evenodd" d="M2.14286 3.92857V3.5C2.14286 3.02661 2.52662 2.64286 3.00001 2.64286H3.28572H3.94287C4.33736 2.64286 4.65715 2.32306 4.65715 1.92857V1.21429C4.65715 0.819796 4.33736 0.5 3.94287 0.5H3.28572H3.00001C2.52662 0.5 2.15877 0.898694 1.97424 1.33463C1.75738 1.84694 1.34694 2.25738 0.834637 2.47423C0.398695 2.65876 0 3.02661 0 3.5V3.92857V4.78571V6.92857V7.3V9.78571C0 10.1802 0.319797 10.5 0.714287 10.5H1.42857C1.82306 10.5 2.14286 10.1802 2.14286 9.78571V7.64286C2.14286 7.24837 2.46266 6.92857 2.85715 6.92857H3.57144C3.96593 6.92857 4.28572 6.60878 4.28572 6.21429V5.5C4.28572 5.10551 3.96593 4.78571 3.57144 4.78571H2.85715C2.46266 4.78571 2.14286 4.46592 2.14286 4.07143V3.92857ZM10.7143 1.21429C10.7143 0.819797 11.0341 0.5 11.4286 0.5H12.1429C12.5374 0.5 12.8572 0.819796 12.8572 1.21429V9.78571C12.8572 10.1802 12.5374 10.5 12.1429 10.5H11.4286C11.0341 10.5 10.7143 10.1802 10.7143 9.78571V1.21429ZM13.5715 9.42857C13.5715 8.83684 14.0512 8.35714 14.6429 8.35714C15.2346 8.35714 15.7143 8.83684 15.7143 9.42857C15.7143 10.0203 15.2346 10.5 14.6429 10.5C14.0512 10.5 13.5715 10.0203 13.5715 9.42857ZM5.00001 9.78571C5.00001 10.1802 5.31981 10.5 5.7143 10.5H6.42859C6.82308 10.5 7.14287 10.1802 7.14287 9.78571V5.5C7.14287 5.10551 7.46267 4.78571 7.85716 4.78571H9.28574C9.68023 4.78571 10 4.46592 10 4.07143V3.35714C10 2.96265 9.68023 2.64286 9.28574 2.64286H7.85716C7.46267 2.64286 7.15453 2.97143 7.02546 3.34421C6.81106 3.96349 6.32065 4.4539 5.70137 4.66831C5.32859 4.79737 5.00001 5.10551 5.00001 5.5V9.78571Z" fill="#F2FF5E"/>
</svg>
